<svg xmlns="http://www.w3.org/2000/svg" width="150" height="50" viewBox="0,0,150,50"><path fill="#8ed745" d="M69.01 26.82L68.96 26.78L69.08 26.90Q70.76 26.94 72.59 26.94L72.67 27.02L72.63 26.98Q74.40 26.96 76.23 26.81L76.33 26.92L76.20 26.78Q76.12 27.47 76.12 28.19L76.05 28.11L76.17 29.57L76.17 29.57Q73.78 29.54 69.02 29.66L69.05 29.68L69.10 29.73Q68.98 35.56 67.84 40.54L67.86 40.56L67.91 40.61Q65.62 41.22 64.14 42.02L64.09 41.97L64.24 42.11Q66.44 35.18 66.18 28.06L66.32 28.21L66.22 28.11Q65.93 20.93 63.27 14.27L63.37 14.37L63.35 14.35Q67.03 16.89 71.79 17.12L71.73 17.06L71.81 17.14Q76.38 17.22 80.53 15.46L80.55 15.49L80.53 15.46Q80.26 16.30 80.03 17.10L80.08 17.15L79.49 18.66L79.54 18.70Q76.91 19.88 73.94 20.03L73.85 19.94L73.83 19.92Q70.89 20.06 68.03 19.34L68.06 19.37L68.12 19.43Q68.85 22.86 69.04 26.86ZM81.28 14.89L81.24 14.84L81.10 14.70Q76.59 16.93 71.71 16.62L71.78 16.69L71.78 16.69Q66.33 16.27 62.60 13.41L62.60 13.41L62.69 13.50Q65.61 20.49 65.92 28.11L65.85 28.04L65.82 28.01Q66.10 35.91 63.59 42.68L63.71 42.81L63.78 42.87Q64.32 42.35 65.69 41.71L65.73 41.74L65.75 41.76Q65.45 42.42 64.88 43.94L64.98 44.04L64.97 44.02Q67.19 42.86 70.08 42.36L70.12 42.40L70.25 42.53Q70.83 37.63 71.02 31.92L71.05 31.95L70.88 31.77Q72.74 31.81 74.56 31.81L74.51 31.75L74.57 31.81Q76.43 31.88 78.26 32.07L78.13 31.95L78.25 32.06Q78.05 31.03 78.05 30.12L78.08 30.15L77.97 28.14L78.05 28.21Q77.28 28.31 76.44 28.31L76.56 28.43L76.53 28.41Q76.46 27.46 76.53 26.43L76.63 26.52L76.49 26.39Q75.26 26.72 73.85 26.72L73.79 26.66L73.85 26.71Q72.30 26.57 70.93 26.54L71.05 26.66L71.00 24.48L70.95 24.42Q70.91 23.31 70.79 22.25L70.76 22.22L70.77 22.23Q71.74 22.28 72.73 22.28L72.81 22.37L72.84 22.39Q77.46 22.26 81.08 20.36L81.05 20.32L81.13 20.40Q81.55 18.50 82.46 15.87L82.54 15.95L82.58 15.99Q81.17 16.71 80.37 17.06L80.38 17.06L80.44 17.12Q80.60 16.26 81.10 14.70Z"/><path d="M6 48 C94 20,83 35,132 41" stroke="#b8d75a" fill="none"/><path d="M13 45 C60 48,64 49,138 14" stroke="#e179c7" fill="none"/><path fill="#58e8c4" d="M130.59 34.71L130.50 34.63L130.68 34.80Q130.57 38.27 127.41 39.57L127.35 39.50L127.49 39.64Q125.43 40.29 121.02 40.44L121.13 40.56L121.18 40.61Q116.34 40.67 114.09 39.49L114.04 39.44L114.09 39.49Q112.20 38.13 112.35 34.78L112.44 34.87L112.44 34.87Q112.46 34.25 112.65 32.27L112.56 32.18L112.55 32.17Q112.65 30.55 112.65 29.56L112.72 29.64L112.77 29.69Q112.79 21.71 108.60 14.29L108.49 14.17L108.64 14.32Q109.78 14.96 112.74 16.03L112.71 15.99L112.75 16.03Q115.58 22.71 115.58 30.09L115.56 30.07L115.54 30.06Q115.50 30.63 115.41 31.81L115.38 31.78L115.37 31.77Q115.40 33.08 115.40 33.69L115.27 33.55L115.33 33.62Q115.36 35.93 116.92 36.92L116.99 36.99L116.85 36.84Q118.55 37.71 121.52 37.71L121.47 37.66L121.50 37.69Q124.22 37.78 125.85 36.60L125.71 36.46L125.74 36.49Q127.56 35.11 127.41 32.60L127.46 32.65L127.45 32.64Q127.38 31.27 127.38 29.94L127.35 29.91L127.42 29.99Q127.37 22.89 129.77 16.38L129.85 16.47L132.00 15.87L131.98 15.85Q132.90 15.51 134.00 15.06L134.03 15.09L134.15 15.20Q130.36 22.26 130.36 29.84L130.37 29.85L130.38 29.85Q130.34 30.66 130.48 32.30L130.46 32.28L130.44 32.26Q130.57 33.89 130.57 34.69ZM132.68 35.55L132.65 35.52L132.62 35.49Q131.75 30.54 132.47 25.44L132.52 25.49L132.63 25.59Q133.41 20.44 135.81 16.06L135.74 15.99L135.78 16.03Q135.14 16.30 133.69 16.95L133.64 16.90L133.57 16.83Q134.00 16.04 134.80 14.48L134.85 14.54L134.89 14.57Q131.32 15.68 129.41 16.02L129.46 16.07L129.41 16.02Q127.03 22.51 127.03 29.78L127.15 29.90L127.02 29.78Q127.11 31.23 127.19 32.64L127.25 32.70L127.11 32.57Q127.28 34.98 125.49 36.20L125.49 36.20L125.48 36.18Q124.00 37.26 121.48 37.29L121.54 37.35L121.50 37.31Q118.77 37.39 117.32 36.63L117.24 36.55L117.20 36.51Q117.14 36.03 117.06 35.58L117.05 35.56L117.07 35.59Q117.17 35.23 117.29 34.74L117.30 34.75L117.27 34.72Q117.49 32.38 117.49 30.06L117.51 30.08L117.53 30.10Q117.52 24.27 116.00 18.37L115.96 18.33L115.91 18.28Q115.14 18.12 113.73 17.78L113.75 17.80L113.76 17.80Q113.45 16.58 113.00 15.67L112.95 15.62L112.89 15.57Q110.27 14.88 107.87 13.51L107.73 13.37L107.86 13.50Q112.41 21.02 112.41 29.74L112.33 29.66L112.43 29.76Q112.41 31.38 112.26 33.09L112.21 33.05L112.23 33.07Q112.10 35.56 112.17 36.74L112.08 36.65L112.13 36.70Q112.20 38.55 113.46 39.70L113.50 39.74L113.45 39.69Q114.54 42.26 119.18 42.64L119.09 42.55L119.15 42.61Q121.19 42.71 123.32 42.78L123.30 42.76L123.37 42.84Q128.69 42.98 131.47 42.02L131.63 42.18L131.52 42.07Q133.05 41.13 133.05 39.08L133.12 39.15L133.10 39.12Q133.09 37.98 132.64 35.50Z"/><path fill="#81b7ed" d="M46.42 29.19L46.40 29.17L46.43 29.20Q44.46 29.09 43.24 30.42L43.33 30.52L43.24 30.43Q42.13 31.86 41.98 33.77L41.89 33.68L41.98 33.77Q41.81 35.93 43.03 36.93L42.92 36.82L42.91 36.81Q44.27 37.96 46.40 37.89L46.44 37.92L46.29 37.78Q48.69 37.70 49.64 36.75L49.63 36.74L49.67 36.78Q50.57 35.20 50.46 33.38L50.63 33.54L50.49 33.41Q50.34 31.51 49.26 30.31L49.43 30.48L49.38 30.44Q48.31 29.25 46.49 29.25ZM46.41 19.77L46.39 19.76L46.44 19.80Q44.97 19.63 43.64 20.12L43.60 20.09L43.74 20.23Q42.33 20.91 42.56 22.78L42.65 22.86L42.53 22.75Q42.99 26.44 46.34 26.44L46.50 26.60L46.40 26.50Q48.07 26.81 49.06 25.66L48.91 25.51L48.99 25.59Q49.92 24.38 49.96 22.82L50.01 22.88L50.00 22.87Q50.10 21.15 49.38 20.54L49.29 20.45L49.33 20.48Q47.68 19.67 46.39 19.75ZM46.13 40.32L46.03 40.22L43.12 40.35L43.14 40.37Q41.60 40.35 40.27 39.48L40.26 39.48L40.12 39.34Q38.93 38.37 39.09 35.52L38.93 35.36L39.03 35.46Q39.40 28.52 43.01 27.53L43.12 27.64L43.13 27.65Q40.88 26.77 39.55 21.40L39.42 21.27L39.43 21.28Q39.06 19.85 39.14 19.05L39.21 19.12L39.11 19.02Q39.43 16.91 43.12 16.87L43.17 16.92L43.14 16.89Q47.40 16.84 48.84 17.03L48.93 17.12L48.81 16.99Q52.66 17.53 53.12 19.55L53.18 19.61L53.11 19.55Q53.24 20.17 53.24 20.55L53.26 20.57L53.37 20.68Q53.36 21.35 53.17 21.96L52.99 21.79L53.15 21.94Q52.42 26.05 49.49 27.57L49.58 27.67L49.64 27.73Q53.07 28.45 53.57 33.74L53.52 33.70L53.53 33.71Q53.46 33.79 53.50 35.08L53.57 35.16L53.49 35.08Q53.68 37.93 52.08 39.00L52.01 38.93L52.04 38.96Q50.71 39.87 46.14 40.33ZM48.40 42.62L48.48 42.71L51.75 42.70L51.74 42.69Q53.44 42.76 54.97 42.03L54.97 42.04L54.99 42.05Q56.07 41.27 56.14 39.41L56.14 39.40L56.19 39.46Q56.32 38.44 55.94 36.50L55.90 36.46L55.85 36.40Q54.87 31.70 52.78 29.83L52.86 29.91L52.57 29.44L52.54 29.33L52.22 28.90L52.30 28.97Q53.95 27.62 54.87 23.47L54.81 23.42L54.97 23.57Q54.83 23.05 54.91 22.22L54.86 22.18L54.92 22.23Q55.10 21.65 55.03 21.04L54.94 20.96L54.97 20.99Q54.78 19.50 53.60 19.00L53.64 19.04L53.64 19.01L53.50 18.95L53.46 18.90Q53.29 18.28 52.11 17.48L51.99 17.36L52.02 17.35L52.09 17.42Q50.05 16.67 45.97 16.48L46.09 16.60L45.96 16.47Q44.50 16.45 43.12 16.56L43.01 16.45L43.07 16.51Q42.22 16.49 40.92 16.64L41.01 16.73L41.05 16.77Q39.09 17.13 38.86 18.77L38.87 18.78L38.85 18.76Q38.72 19.17 38.76 19.96L38.72 19.92L38.86 20.07Q38.94 20.56 39.51 22.92L39.56 22.97L39.50 22.91Q40.23 26.08 41.98 27.42L42.10 27.53L42.16 27.59L42.09 27.52Q39.39 28.90 38.86 34.08L38.81 34.02L38.79 34.01Q38.69 36.30 38.69 37.22L38.56 37.09L38.59 37.12Q38.78 39.02 39.96 39.94L39.92 39.89L39.89 39.86Q39.95 39.89 40.22 40.08L40.29 40.15L40.31 40.17Q41.21 42.33 48.33 42.56ZM48.03 31.52L48.15 31.64L48.05 31.53Q48.98 31.48 49.86 31.94L49.87 31.95L49.82 31.90Q50.27 32.96 50.23 33.49L50.27 33.53L50.09 33.35Q50.18 33.71 50.18 34.01L50.24 34.07L50.13 33.97Q50.25 36.45 47.97 37.29L47.88 37.19L47.89 37.21Q47.08 37.50 46.28 37.39L46.41 37.52L46.34 37.44Q45.31 37.63 44.17 37.18L44.03 37.04L44.20 37.20Q43.79 36.42 43.87 35.43L43.86 35.42L43.91 35.47Q44.01 33.82 45.21 32.60L45.31 32.71L45.33 32.72Q46.38 31.35 47.98 31.47ZM48.34 22.13L48.36 22.14L48.24 22.02Q49.07 21.94 49.60 22.09L49.57 22.05L49.61 22.90L49.61 22.90Q49.63 24.33 48.72 25.34L48.66 25.28L48.80 25.42Q47.72 26.26 46.35 26.07L46.33 26.05L46.50 26.22Q45.37 26.08 44.95 25.86L45.03 25.93L45.10 26.00Q44.96 25.63 44.84 24.94L44.82 24.92L44.79 24.90Q44.54 23.50 45.76 22.66L45.84 22.75L45.79 22.69Q46.98 22.13 48.38 22.17Z"/><path fill="#6de3a8" d="M28.34 28.66L28.44 28.76L22.38 28.67L22.55 28.84Q19.62 28.89 16.69 28.81L16.71 28.83L16.70 28.82Q16.75 35.45 14.70 40.97L14.68 40.96L14.66 40.94Q12.89 41.49 11.13 42.17L11.07 42.10L11.10 42.14Q13.94 36.49 13.94 29.83L13.90 29.78L13.83 29.71Q13.91 21.31 9.80 14.27L9.79 14.25L9.74 14.20Q11.23 14.97 13.70 15.77L13.85 15.92L13.76 15.82Q15.97 20.97 16.50 25.84L16.43 25.76L16.41 25.75Q19.69 26.25 22.54 26.21L22.44 26.10L22.50 26.16Q25.11 26.11 28.42 25.84L28.45 25.87L28.49 25.91Q28.82 21.37 30.57 16.27L30.58 16.28L30.68 16.38Q32.63 15.97 34.88 15.13L34.83 15.08L34.91 15.16Q31.29 21.90 31.29 29.86L31.16 29.72L31.31 29.88Q31.22 35.99 33.58 41.32L33.55 41.29L33.49 41.23Q32.00 40.73 29.94 40.42L29.95 40.43L29.87 40.35Q28.19 35.32 28.30 28.61ZM29.68 40.77L29.72 40.81L29.59 40.68Q30.67 40.88 31.78 41.15L31.74 41.12L31.78 41.16Q32.21 41.96 32.85 43.45L32.85 43.44L32.78 43.38Q36.16 44.36 37.95 45.27L37.86 45.18L37.85 45.17Q33.57 39.18 33.27 30.92L33.19 30.84L33.26 30.91Q32.95 22.87 36.61 16.06L36.58 16.03L35.47 16.45L35.46 16.43Q34.96 16.66 34.35 16.81L34.38 16.84L34.32 16.78Q34.78 16.02 35.62 14.46L35.58 14.43L35.61 14.45Q32.91 15.44 30.28 15.94L30.40 16.06L30.25 15.91Q28.73 20.90 28.28 25.58L28.11 25.42L28.11 25.42Q25.64 25.65 23.21 25.65L23.21 25.66L23.18 25.62Q20.81 25.66 18.30 25.50L18.30 25.51L18.41 25.61Q18.17 22.33 17.06 18.25L16.96 18.15L16.98 18.17Q16.32 18.08 14.87 17.70L14.92 17.75L14.98 17.81Q14.46 16.45 14.00 15.42L13.97 15.39L14.00 15.42Q11.40 14.80 9.11 13.54L9.01 13.44L9.12 13.55Q13.63 20.91 13.63 29.70L13.70 29.77L13.57 29.64Q13.65 36.69 10.53 42.82L10.57 42.86L10.58 42.87Q11.29 42.59 12.62 42.02L12.59 41.99L12.46 41.86Q12.24 42.82 11.44 44.34L11.34 44.25L11.36 44.26Q14.22 43.31 16.46 42.89L16.44 42.87L16.47 42.90Q18.32 37.33 18.51 31.16L18.56 31.21L18.49 31.14Q20.18 31.16 23.38 31.12L23.38 31.12L23.34 31.08Q26.17 31.01 28.07 31.09L28.11 31.12L28.10 31.11Q28.35 36.85 29.69 40.78Z"/><path d="M17 15 C62 35,88 31,129 37" stroke="#6b89e4" fill="none"/><path fill="#7690df" d="M95.41 40.15L95.39 40.13L95.46 40.20Q92.00 40.32 90.37 39.79L90.42 39.84L90.30 39.72Q88.32 39.08 88.02 35.69L88.15 35.82L89.45 34.61L89.55 34.71Q90.34 34.24 91.10 33.75L90.95 33.60L91.13 33.77Q90.71 35.52 92.31 36.74L92.44 36.88L92.46 36.90Q93.61 37.78 95.75 37.59L95.88 37.73L95.76 37.61Q100.16 37.21 99.97 33.66L99.97 33.67L99.90 33.60Q99.76 31.37 97.14 30.15L97.26 30.28L97.14 30.16Q94.30 29.11 91.94 27.89L92.02 27.96L91.92 27.87Q89.53 26.70 88.54 22.01L88.41 21.88L88.37 21.84Q88.30 21.42 88.18 20.66L88.14 20.62L88.31 20.79Q88.22 20.01 88.29 19.44L88.14 19.29L88.17 19.32Q88.40 17.80 89.66 17.34L89.54 17.23L89.72 17.41Q91.98 16.39 95.98 16.58L96.02 16.62L95.94 16.54Q97.78 16.67 98.57 16.74L98.72 16.89L98.73 16.90Q100.15 17.02 101.21 17.48L101.13 17.39L101.11 17.38Q103.36 17.98 103.59 20.46L103.42 20.29L103.42 20.30Q102.55 21.17 100.34 22.50L100.35 22.51L100.22 22.38Q99.80 19.38 95.42 19.38L95.52 19.48L95.39 19.35Q93.59 19.45 92.60 20.14L92.58 20.12L92.65 20.18Q91.48 20.69 91.71 22.48L91.66 22.43L91.55 22.32Q91.93 24.64 94.90 26.17L94.78 26.05L94.97 26.23Q95.34 26.30 99.83 27.94L99.86 27.97L99.86 27.96Q102.56 29.52 102.97 33.90L103.03 33.96L102.96 33.88Q102.93 34.01 103.01 35.26L103.00 35.25L103.12 35.37Q103.20 38.15 101.64 39.26L101.53 39.15L101.57 39.19Q99.63 40.07 95.44 40.18ZM97.81 42.62L97.75 42.56L97.83 42.65Q99.29 42.73 101.27 42.73L101.22 42.68L101.18 42.64Q103.40 42.78 104.66 42.36L104.63 42.32L104.65 42.35Q105.90 41.54 105.82 39.75L105.77 39.70L105.69 39.62Q105.71 38.68 105.33 36.63L105.39 36.69L105.31 36.61Q104.42 31.96 102.33 30.09L102.23 30.00L102.35 30.11Q101.59 28.56 100.26 27.83L100.27 27.84L94.93 25.73L94.79 25.60Q94.63 25.59 94.17 25.36L94.09 25.28L94.08 25.00L93.98 24.55L93.95 24.52Q93.73 23.05 94.87 22.44L94.89 22.46L95.05 22.62Q95.68 21.92 97.40 21.73L97.35 21.69L97.49 21.83Q98.49 21.56 99.63 22.02L99.62 22.01L99.75 22.14Q99.72 22.15 99.91 22.99L100.06 23.13L100.01 23.09Q100.08 22.81 100.57 22.58L100.68 22.69L100.62 22.64Q101.41 23.62 101.53 24.76L101.46 24.69L101.58 24.81Q101.66 24.78 105.31 22.19L105.19 22.06L105.19 22.07Q104.92 19.44 103.48 18.75L103.61 18.88L103.62 18.89Q102.88 17.47 101.44 16.94L101.42 16.92L101.48 16.98Q99.21 16.19 96.01 16.19L95.92 16.11L95.94 16.13Q91.06 16.15 89.19 16.84L89.27 16.92L89.16 16.81Q87.85 17.29 87.74 18.96L87.88 19.10L87.76 18.99Q87.68 19.48 88.10 21.69L88.08 21.67L88.27 21.85Q88.96 25.63 91.13 27.87L90.99 27.74L90.98 27.73Q91.77 29.43 93.27 30.11L93.25 30.09L93.33 30.17Q94.94 30.96 98.86 32.52L98.67 32.33L98.76 32.46L99.44 32.84L99.41 32.84L99.44 32.88Q99.56 33.26 99.60 33.60L99.65 33.65L99.62 33.63Q99.71 37.11 95.79 37.26L95.72 37.19L95.75 37.22Q94.64 37.28 93.34 36.90L93.29 36.85L93.25 36.80Q92.95 36.01 92.95 35.29L92.92 35.26L92.94 35.28Q92.94 35.02 92.98 34.75L93.07 34.84L93.12 34.89Q92.55 34.96 91.75 35.46L91.93 35.64L91.78 35.50Q91.31 34.42 91.47 33.05L91.57 33.15L91.57 33.15Q89.34 34.19 87.74 35.60L87.79 35.65L87.83 35.69Q87.90 36.53 87.98 37.56L87.82 37.39L87.84 37.41Q88.19 39.18 89.49 39.94L89.55 40.00L89.58 40.03Q90.74 41.80 93.29 42.18L93.27 42.16L93.25 42.14Q94.87 42.43 97.80 42.62Z"/></svg>